<svg viewBox="0 0 829 146" fill="none" xmlns="http://www.w3.org/2000/svg" aria-hidden="true">
    <path d="M777.998 108.64C777.998 94.1495 788.349 83.9963 803.036 83.9963C817.822 83.9963 828.173 94.1495 828.173 108.64C828.173 122.736 817.428 133.284 803.036 133.284C788.25 133.284 777.998 123.229 777.998 108.64ZM788.841 108.64C788.841 117.315 794.559 123.131 803.036 123.131C811.415 123.131 817.33 117.216 817.33 108.64C817.33 99.9655 811.612 94.051 803.036 94.051C794.559 94.051 788.841 99.9655 788.841 108.64Z" fill="currentColor"/>
    <path d="M757.845 132.298V84.9821H768.59V132.298H757.845Z" fill="currentColor"/>
    <path d="M757.845 76.9976H768.59V63.3942H757.845V76.9976Z" fill="currentColor"/>
    <path d="M735.19 132.298V120.568H747.216V132.298H735.19Z" fill="currentColor"/>
    <path d="M703.344 84.9821V72.1674H714.089V84.9821H727.002V94.8396H714.089V111.696C714.089 119.286 716.947 122.145 724.143 122.145H727.002V132.298H724.143C709.948 132.298 703.344 125.792 703.344 111.696V94.8396H696.246V84.9821H703.344Z" fill="currentColor"/>
    <path d="M642.361 108.64C642.361 94.1495 652.416 83.9963 666.907 83.9963C681.101 83.9963 690.959 93.9524 690.959 108.246C690.959 109.626 690.86 110.907 690.565 112.189H653.402C654.585 119.68 660.105 124.412 667.794 124.412C673.117 124.412 678.046 122.046 681.101 118.005L688.1 123.821C683.664 129.834 676.271 133.284 667.794 133.284C652.712 133.284 642.361 123.229 642.361 108.64ZM653.402 105.289H680.608C679.721 97.6982 674.595 92.8681 667.202 92.8681C659.711 92.8681 654.388 97.6982 653.402 105.289Z" fill="currentColor"/>
    <path d="M587.106 108.64C587.106 94.1495 597.16 83.9963 611.651 83.9963C625.846 83.9963 635.703 93.9524 635.703 108.246C635.703 109.626 635.604 110.907 635.309 112.189H598.146C599.329 119.68 604.849 124.412 612.538 124.412C617.861 124.412 622.79 122.046 625.846 118.005L632.844 123.821C628.408 129.834 621.015 133.284 612.538 133.284C597.456 133.284 587.106 123.229 587.106 108.64ZM598.146 105.289H625.353C624.465 97.6982 619.34 92.8681 611.946 92.8681C604.455 92.8681 599.132 97.6982 598.146 105.289Z" fill="currentColor"/>
    <path d="M582.584 83.9963H583.57V95.431H581.204C572.431 95.431 567.108 101.247 567.108 110.809V132.298H556.265V84.9821H567.108V96.5153C569.079 88.6294 574.994 83.9963 582.584 83.9963Z" fill="currentColor"/>
    <path d="M524.099 84.9821V72.1674H534.844V84.9821H547.757V94.8396H534.844V111.696C534.844 119.286 537.703 122.145 544.898 122.145H547.757V132.298H544.898C530.704 132.298 524.099 125.792 524.099 111.696V94.8396H517.002V84.9821H524.099Z" fill="currentColor"/>
    <path d="M512.258 119.089C512.258 127.665 504.964 133.284 493.923 133.284C485.84 133.284 477.954 130.031 473.025 124.708L479.63 117.906C483.474 122.046 488.699 124.412 493.627 124.412C498.162 124.412 501.513 122.342 501.513 119.286C501.513 110.119 475.194 114.259 475.194 97.994C475.194 89.9108 482.784 83.9963 493.43 83.9963C500.133 83.9963 506.442 86.4607 510.779 90.8966L504.175 97.7968C501.316 94.6424 497.373 92.8681 493.43 92.8681C488.994 92.8681 485.84 94.9381 485.84 97.6982C485.84 106.669 512.258 101.74 512.258 119.089Z" fill="currentColor"/>
    <path d="M453.938 63.2957H464.781V132.298H453.938V63.2957Z" fill="currentColor"/>
    <path d="M431.123 63.2957H441.966V132.298H431.123V63.2957Z" fill="currentColor"/>
    <path d="M367.141 108.64C367.141 94.3467 377.59 83.9963 391.982 83.9963C406.67 83.9963 416.33 93.1638 418.597 109.527L421.752 132.298H410.908L409.528 121.948C405.783 128.946 398.981 133.284 390.602 133.284C377.097 133.284 367.141 122.835 367.141 108.64ZM377.984 108.64C377.984 117.315 383.702 123.131 392.179 123.131C400.558 123.131 406.473 117.216 406.473 108.64C406.473 99.9655 400.657 94.051 392.179 94.051C383.702 94.051 377.984 99.9655 377.984 108.64Z" fill="currentColor"/>
    <path d="M339.841 132.298H328.161L326.573 81.8406L300.87 132.298H289.901L287.254 63.2957H298.453L300.078 111.588L324.289 63.2957H337.028L338.665 111.07L361.913 63.2957H373.967L339.841 132.298Z" fill="currentColor"/>
    <rect width="62.3984" height="113.185" transform="matrix(1 0 -0.515038 0.857167 58.2944 0)" fill="var(--logo-accent, #00F19D)"/>
    <rect width="58.9351" height="82.6445" transform="matrix(1 0 -0.515038 0.857167 163.258 61.0046)" fill="var(--logo-accent, #00F19D)"/>
    <rect width="58.5588" height="129.708" transform="matrix(1 0 -0.515038 0.857167 110.289 34.3992)" fill="var(--logo-accent, #00F19D)"/>
</svg>